<svg width="37" height="37" viewBox="0 0 37 37" fill="none" xmlns="http://www.w3.org/2000/svg">
<g clip-path="url(#clip0_93_1113)">
<path d="M18.1484 0L20.6537 3.56133C22.7919 6.60104 22.7919 10.6559 20.6537 13.6956L18.1484 17.2569L15.6432 13.6956C13.505 10.6559 13.505 6.60104 15.6432 3.56133L18.1484 0Z" fill="#072AC8" fill-opacity="0.5"/>
<path d="M18.0978 36.6364L15.5926 33.075C13.4543 30.0353 13.4543 25.9805 15.5926 22.9408L18.0978 19.3795L20.603 22.9408C22.7413 25.9805 22.7413 30.0353 20.603 33.075L18.0978 36.6364Z" fill="#072AC8"/>
<path d="M35.4141 8.82688L33.5825 12.7771C32.0192 16.1488 28.5076 18.1762 24.806 17.8442L20.4692 17.4553L22.3008 13.5051C23.8641 10.1334 27.3757 8.10602 31.0773 8.43797L35.4141 8.82688Z" fill="#072AC8"/>
<path d="M0.832032 27.8095L2.66363 23.8592C4.22695 20.4876 7.73854 18.4602 11.4401 18.7921L15.7769 19.181L13.9454 23.1313C12.382 26.5029 8.87044 28.5303 5.16884 28.1984L0.832032 27.8095Z" fill="#072AC8" fill-opacity="0.5"/>
<path d="M0.832031 8.82688L2.66363 12.7771C4.22695 16.1488 7.73854 18.1762 11.4401 17.8442L15.7769 17.4553L13.9454 13.5051C12.382 10.1334 8.87044 8.10602 5.16884 8.43797L0.832031 8.82688Z" fill="#072AC8"/>
<path d="M35.4142 27.8095L33.5826 23.8592C32.0193 20.4876 28.5077 18.4602 24.8061 18.7921L20.4693 19.181L22.3009 23.1313C23.8642 26.5029 27.3758 28.5303 31.0774 28.1984L35.4142 27.8095Z" fill="#072AC8" fill-opacity="0.5"/>
</g>
<defs>
<clipPath id="clip0_93_1113">
<rect width="36.6364" height="36.6364" fill="white"/>
</clipPath>
</defs>
</svg>
